<svg width="96" height="96" viewBox="0 0 96 96" fill="none" xmlns="http://www.w3.org/2000/svg">
<path fill-rule="evenodd" clip-rule="evenodd" d="M38.8544 38.401C41.786 38.401 44.3037 40.1215 45.3951 42.5793C46.5633 40.3121 48.9773 38.7555 51.7658 38.7555C55.5753 38.7555 58.686 41.6608 58.8761 45.314L61.1178 45.4321L68.2372 46.3775C68.2372 46.3775 60.385 12.4625 59.006 7.73572C57.6269 3.0089 57.4976 1.00001 54.6619 1C51.8262 0.999995 49.8955 3.8361 48.1458 8.68109C47.0861 11.6156 43.3323 21.9585 40.5366 29.659C41.414 29.6194 42.0966 29.8333 42.2333 30.4836C42.5977 32.217 41.2999 32.4547 39.1928 33.3604C38.0659 36.4639 37.3026 38.5657 37.3026 38.5657C37.8022 38.4579 38.3214 38.401 38.8544 38.401ZM51.5848 30.8381C50.6798 32.747 53.0932 32.847 55.5669 34.1468C58.0406 35.4467 59.6697 37.3374 60.8764 35.9194C62.2339 34.3241 58.8249 32.0789 57.1959 31.3107C55.5669 30.5426 52.4898 28.9292 51.5848 30.8381Z" fill="#D7484A"/>
<path d="M58.8853 45.6685C58.8853 49.4864 55.6978 52.5815 51.7658 52.5815C50.7819 52.5815 49.8446 52.3876 48.9922 52.0372C49.1144 52.9641 49.0035 53.9429 48.6645 54.8858C48.6645 54.8858 53.8174 54.4722 56.1101 56.1266C58.4028 57.781 55.8084 59.6717 52.128 58.7263C55.5669 64.3394 45.3951 65.8756 41.9316 61.0897C38.1305 64.753 28.4168 63.9849 32.8212 57.781C31.7267 57.781 30.4134 57.6917 29.5028 57.3856C27.9944 65.0484 33.8168 71.371 43.6813 72.1387C52.7917 72.8477 61.2384 67.4709 61.6005 60.7352C61.8901 55.3466 61.1178 45.4321 61.1178 45.4321L58.8761 45.314C58.8822 45.4314 58.8853 45.5496 58.8853 45.6685Z" fill="#F9DDC7"/>
<path d="M68.7802 86.9691C69.3233 87.4418 70.4249 87.9564 71.1936 85.9646C71.888 84.1654 72.3916 82.1963 72.7427 80.1743C72.7427 80.1743 68.5992 78.9926 64.3076 79.2289C63.66 80.5029 62.8849 81.669 61.978 82.7149C62.6566 83.1876 63.0485 85.6101 64.6775 82.9513C64.6775 84.7829 64.1949 86.0828 64.1949 86.0828C64.0742 86.5358 64.1707 87.4181 65.5222 87.3236C65.699 87.3112 65.8688 87.2488 66.0311 87.1463C66.233 87.2362 66.4252 87.3065 66.6082 87.3591C67.5692 87.6354 68.274 87.4218 68.7802 86.9691Z" fill="#F9DDC7"/>
<path d="M27.2101 84.2898C27.936 83.935 28.4681 82.8622 28.1151 81.356C26.0721 79.2252 24.5561 76.7083 23.8548 73.9112C23.485 75.9398 23.0109 80.8242 23.3488 83.1876C23.7711 86.1419 24.5554 87.7372 25.5208 87.8554C25.9915 87.913 26.4192 87.5772 26.7269 86.9691C27.0502 86.33 27.241 85.3902 27.2101 84.2898Z" fill="#F9DDC7"/>
<path d="M28.1151 81.356C28.4681 82.8622 27.936 83.935 27.2101 84.2898C27.241 85.3902 27.0502 86.33 26.7269 86.9691C28.02 87.8711 28.7165 87.5764 29.0805 86.7887C29.5794 85.7089 29.4536 83.7028 29.3834 82.5828L29.3821 82.5625C28.9392 82.1757 28.5152 81.7732 28.1151 81.356Z" fill="#F9DDC7"/>
<path d="M31.8558 84.4469C30.9913 83.8694 30.1578 83.2399 29.3821 82.5625L29.3834 82.5828C29.4536 83.7028 29.5794 85.7089 29.0805 86.7887C31.0798 87.6719 31.3128 86.0828 31.8558 84.4469Z" fill="#F9DDC7"/>
<path d="M74.15 58.1726C74.15 58.1726 73.0036 61.5624 68.9009 59.7308C69.666 60.8548 70.3322 62.2484 70.8222 63.6895C71.4252 63.6517 72.068 63.4336 72.702 63.0744C75.0394 61.75 77.2576 58.5064 76.9253 55.2994C76.5875 52.0379 74.5723 50.3953 72.2796 49.2727C71.1333 48.9773 68.7199 49.0954 67.687 50.218C68.9244 51.3332 70.7227 52.8301 72.2796 53.645C75.7187 55.445 74.15 58.1726 74.15 58.1726Z" fill="#F9DDC7"/>
<path d="M38.3773 58.1726C40.6219 60.3192 44.4817 60.0133 46.9984 57.4895C47.7728 56.7129 48.3298 55.8168 48.6645 54.8858C49.0035 53.9429 49.1144 52.9641 48.9922 52.0372C47.3049 51.3435 45.9503 50.036 45.2252 48.4031C45.1272 48.1824 45.0407 47.9557 44.9664 47.7239C42.9364 47.3025 40.5897 47.9915 38.8701 49.716C38.1674 50.4208 37.6437 51.2239 37.3026 52.0622C37.0915 52.5813 36.9504 53.1139 36.8802 53.645C36.6577 55.3282 37.1475 56.9965 38.3773 58.1726Z" fill="#FC9582"/>
<path d="M51.7658 52.5815C55.6978 52.5815 58.8853 49.4864 58.8853 45.6685C58.8853 45.5496 58.8822 45.4314 58.8761 45.314C58.686 41.6608 55.5753 38.7555 51.7658 38.7555C48.9773 38.7555 46.5633 40.3121 45.3951 42.5793C44.916 43.509 44.6464 44.5582 44.6464 45.6685C44.6464 46.3842 44.7585 47.0746 44.9664 47.7239C45.0407 47.9557 45.1272 48.1824 45.2252 48.4031C45.9503 50.036 47.3049 51.3435 48.9922 52.0372C49.8446 52.3876 50.7819 52.5815 51.7658 52.5815Z" fill="#FEFFEF"/>
<path d="M45.3951 42.5793C44.3037 40.1215 41.786 38.401 38.8544 38.401C38.3214 38.401 37.8022 38.4579 37.3026 38.5657C34.1169 39.2533 31.735 42.0135 31.735 45.314C31.735 46.1615 31.8921 46.9735 32.1795 47.7239C32.3915 48.2771 32.6742 48.7968 33.0172 49.2727C34.0203 50.6647 35.5382 51.6814 37.3026 52.0622C37.6437 51.2239 38.1674 50.4208 38.8701 49.716C40.5897 47.9915 42.9364 47.3025 44.9664 47.7239C44.7585 47.0746 44.6464 46.3842 44.6464 45.6685C44.6464 44.5582 44.916 43.509 45.3951 42.5793Z" fill="#FEFFEF"/>
<path d="M70.8222 63.6895C72.496 68.6116 72.1153 74.0861 66.6082 71.2524C66.247 74.2204 65.4894 76.9043 64.3076 79.2289C68.5992 78.9926 72.7427 80.1743 72.7427 80.1743C73.8559 73.7635 73.4358 66.821 72.702 63.0744C72.068 63.4336 71.4252 63.6517 70.8222 63.6895Z" fill="#92C5D8"/>
<path d="M64.6775 82.9513C63.0485 85.6101 62.6566 83.1876 61.978 82.7149C59.7412 85.2944 56.7018 87.1425 52.7917 88.0742C52.7917 88.0742 52.7917 89.062 52.9799 90.2779C54.5303 91.176 62.8675 90.9278 66.7892 89.8052L66.6082 87.3591C66.4252 87.3065 66.233 87.2362 66.0311 87.1463C65.8688 87.2488 65.699 87.3112 65.5222 87.3236C64.1707 87.4181 64.0742 86.5358 64.1949 86.0828C64.1949 86.0828 64.6775 84.7829 64.6775 82.9513Z" fill="#65738E"/>
<path d="M46.8187 88.7602C45.7028 88.7713 44.5366 88.7265 43.3193 88.6235C40.0069 88.3431 36.4979 87.2018 33.3642 85.3856L33.6055 89.1552C38.8743 90.6334 41.3886 90.8096 46.8187 90.0812C46.7839 89.6804 46.7675 89.2397 46.8187 88.7602Z" fill="#65738E"/>
<path d="M67.2116 94.0002C69.9869 92.7843 69.8663 89.5098 66.7892 89.8052C62.8675 90.9278 54.5303 91.176 52.9799 90.2779C53.0946 91.0186 53.2791 91.844 53.5761 92.5822C55.3258 94.7093 62.6262 96.0091 67.2116 94.0002Z" fill="#4D3930"/>
<path d="M32.0972 91.9322C33.3973 94.7515 44.164 94.8865 46.6377 92.3458C47.1135 91.8571 46.9069 91.0971 46.8187 90.0812C41.3886 90.8096 38.8743 90.6334 33.6055 89.1552C33.6055 89.1552 31.2525 90.1006 32.0972 91.9322Z" fill="#4D3930"/>
<path d="M46.9984 57.4895C44.4817 60.0133 40.6219 60.3192 38.3773 58.1726C37.1475 56.9965 36.6577 55.3282 36.8802 53.645C34.9895 53.5795 32.1033 53.6365 30.2268 54.3897C29.2834 54.7684 28.5951 55.3231 28.4168 56.1266C28.2809 56.7385 28.7568 57.1348 29.5028 57.3856C30.4134 57.6917 31.7267 57.781 32.8212 57.781C28.4168 63.9849 38.1305 64.753 41.9316 61.0897C45.3951 65.8756 55.5669 64.3394 52.128 58.7263C55.8084 59.6717 58.4028 57.781 56.1101 56.1266C53.8174 54.4722 48.6645 54.8858 48.6645 54.8858C48.3298 55.8168 47.7728 56.7129 46.9984 57.4895Z" fill="white"/>
<path d="M28.4168 56.1266C28.5951 55.3231 29.2834 54.7684 30.2268 54.3897C30.8905 52.5815 31.3731 51.1043 33.0172 49.2727C32.6742 48.7968 32.3915 48.2771 32.1795 47.7239C30.376 48.7266 28.2357 49.7454 23.771 50.7498C19.3063 51.7543 20.3321 57.3856 22.7454 57.781C16.0484 64.753 19.4874 71.0161 23.4694 69.2435C23.3404 70.8676 23.4832 72.4288 23.8548 73.9112C24.5561 76.7083 26.0721 79.2252 28.1151 81.356C28.5152 81.7732 28.9392 82.1757 29.3821 82.5625C30.1578 83.2399 30.9913 83.8694 31.8558 84.4469C32.3502 84.7771 32.8547 85.0902 33.3642 85.3856C36.4979 87.2018 40.0069 88.3431 43.3193 88.6235C44.5366 88.7265 45.7028 88.7713 46.8187 88.7602C48.9994 88.7387 50.9882 88.5039 52.7917 88.0742C56.7018 87.1425 59.7412 85.2944 61.978 82.7149C62.8849 81.669 63.66 80.5029 64.3076 79.2289C65.4894 76.9043 66.247 74.2204 66.6082 71.2524C72.1153 74.0861 72.496 68.6116 70.8222 63.6895C70.3322 62.2484 69.666 60.8548 68.9009 59.7308C73.0036 61.5624 74.15 58.1726 74.15 58.1726C74.15 58.1726 75.7187 55.445 72.2796 53.645C70.7227 52.8301 68.9244 51.3332 67.687 50.218C68.7199 49.0954 71.1333 48.9773 72.2796 49.2727C71.8573 47.5592 70.1076 46.8502 68.2372 46.3775L61.1178 45.4321C61.1178 45.4321 61.8901 55.3466 61.6005 60.7352C61.2384 67.4709 52.7917 72.8477 43.6813 72.1387C33.8168 71.371 27.9944 65.0484 29.5028 57.3856C28.7568 57.1348 28.2809 56.7385 28.4168 56.1266Z" fill="white"/>
<path d="M55.5669 34.1468C53.0932 32.847 50.6798 32.747 51.5848 30.8381C52.4898 28.9292 55.5669 30.5426 57.1959 31.3107C58.8249 32.0789 62.2339 34.3241 60.8764 35.9194C59.6697 37.3374 58.0406 35.4467 55.5669 34.1468Z" fill="white"/>
<path d="M32.8211 35.4467C34.0882 36.9829 35.4155 35.2104 38.1305 33.8514C38.5028 33.6651 38.858 33.5043 39.1928 33.3604C41.2999 32.4547 42.5977 32.217 42.2333 30.4836C42.0966 29.8333 41.414 29.6194 40.5366 29.659C39.2897 29.7152 37.6492 30.2832 36.6222 30.8381C34.8725 31.7834 31.5541 33.9105 32.8211 35.4467Z" fill="white"/>
<path d="M36.8802 53.645C36.9504 53.1139 37.0915 52.5813 37.3026 52.0622C35.5382 51.6814 34.0203 50.6647 33.0172 49.2727C31.3731 51.1043 30.8905 52.5815 30.2268 54.3897C32.1033 53.6365 34.9895 53.5795 36.8802 53.645Z" fill="#F9DDC7"/>
<path d="M45.3951 42.5793C44.3037 40.1215 41.786 38.401 38.8544 38.401C38.3214 38.401 37.8022 38.4579 37.3026 38.5657M45.3951 42.5793C44.916 43.509 44.6464 44.5582 44.6464 45.6685C44.6464 46.3842 44.7585 47.0746 44.9664 47.7239M45.3951 42.5793C46.5633 40.3121 48.9773 38.7555 51.7658 38.7555C55.5753 38.7555 58.686 41.6608 58.8761 45.314M48.9922 52.0372C49.8446 52.3876 50.7819 52.5815 51.7658 52.5815C55.6978 52.5815 58.8853 49.4864 58.8853 45.6685C58.8853 45.5496 58.8822 45.4314 58.8761 45.314M48.9922 52.0372C47.3049 51.3435 45.9503 50.036 45.2252 48.4031C45.1272 48.1824 45.0407 47.9557 44.9664 47.7239M48.9922 52.0372C49.1144 52.9641 49.0035 53.9429 48.6645 54.8858M44.9664 47.7239C42.9364 47.3025 40.5897 47.9915 38.8701 49.716C38.1674 50.4208 37.6437 51.2239 37.3026 52.0622M37.3026 52.0622C37.0915 52.5813 36.9504 53.1139 36.8802 53.645M37.3026 52.0622C35.5382 51.6814 34.0203 50.6647 33.0172 49.2727M37.3026 38.5657C34.1169 39.2533 31.735 42.0135 31.735 45.314C31.735 46.1615 31.8921 46.9735 32.1795 47.7239M37.3026 38.5657C37.3026 38.5657 38.0659 36.4639 39.1928 33.3604M68.2372 46.3775C68.2372 46.3775 60.385 12.4625 59.006 7.73572C57.6269 3.0089 57.4976 1.00001 54.6619 1C51.8262 0.999995 49.8955 3.8361 48.1458 8.68109C47.0861 11.6156 43.3323 21.9585 40.5366 29.659M68.2372 46.3775L61.1178 45.4321M68.2372 46.3775C70.1076 46.8502 71.8573 47.5592 72.2796 49.2727M40.5366 29.659C39.2897 29.7152 37.6492 30.2832 36.6222 30.8381C34.8725 31.7834 31.5541 33.9105 32.8211 35.4467C34.0882 36.9829 35.4155 35.2104 38.1305 33.8514C38.5028 33.6651 38.858 33.5043 39.1928 33.3604M40.5366 29.659C41.414 29.6194 42.0966 29.8333 42.2333 30.4836C42.5977 32.217 41.2999 32.4547 39.1928 33.3604M36.8802 53.645C36.6577 55.3282 37.1475 56.9965 38.3773 58.1726C40.6219 60.3192 44.4817 60.0133 46.9984 57.4895C47.7728 56.7129 48.3298 55.8168 48.6645 54.8858M36.8802 53.645C34.9895 53.5795 32.1033 53.6365 30.2268 54.3897M48.6645 54.8858C48.6645 54.8858 53.8174 54.4722 56.1101 56.1266C58.4028 57.781 55.8084 59.6717 52.128 58.7263C55.5669 64.3394 45.3951 65.8756 41.9316 61.0897C38.1305 64.753 28.4168 63.9849 32.8212 57.781C31.7267 57.781 30.4134 57.6917 29.5028 57.3856M33.0172 49.2727C31.3731 51.1043 30.8905 52.5815 30.2268 54.3897M33.0172 49.2727C32.6742 48.7968 32.3915 48.2771 32.1795 47.7239M30.2268 54.3897C29.2834 54.7684 28.5951 55.3231 28.4168 56.1266C28.2809 56.7385 28.7568 57.1348 29.5028 57.3856M29.5028 57.3856C27.9944 65.0484 33.8168 71.371 43.6813 72.1387C52.7917 72.8477 61.2384 67.4709 61.6005 60.7352C61.8901 55.3466 61.1178 45.4321 61.1178 45.4321M61.1178 45.4321L58.8761 45.314M32.1795 47.7239C30.376 48.7266 28.2357 49.7454 23.771 50.7498C19.3063 51.7543 20.3321 57.3856 22.7454 57.781C16.0484 64.753 19.4874 71.0161 23.4694 69.2435C23.3404 70.8676 23.4832 72.4288 23.8548 73.9112M66.1858 48.8C66.1858 48.8 66.7886 49.4084 67.687 50.218M72.2796 49.2727C71.1333 48.9773 68.7199 49.0954 67.687 50.218M72.2796 49.2727C74.5723 50.3953 76.5875 52.0379 76.9253 55.2994C77.2576 58.5064 75.0394 61.75 72.702 63.0744M67.687 50.218C68.9244 51.3332 70.7227 52.8301 72.2796 53.645C75.7187 55.445 74.15 58.1726 74.15 58.1726C74.15 58.1726 73.0036 61.5624 68.9009 59.7308C69.666 60.8548 70.3322 62.2484 70.8222 63.6895M70.8222 63.6895C72.496 68.6116 72.1153 74.0861 66.6082 71.2524C66.247 74.2204 65.4894 76.9043 64.3076 79.2289M70.8222 63.6895C71.4252 63.6517 72.068 63.4336 72.702 63.0744M72.702 63.0744C73.4358 66.821 73.8559 73.7635 72.7427 80.1743M68.7802 86.9691C69.3233 87.4418 70.4249 87.9564 71.1936 85.9646C71.888 84.1654 72.3916 82.1963 72.7427 80.1743M68.7802 86.9691C69.8892 85.9774 70.0931 83.8384 70.2886 83.1876M68.7802 86.9691C68.274 87.4218 67.5692 87.6354 66.6082 87.3591M61.978 82.7149C62.6566 83.1876 63.0485 85.6101 64.6775 82.9513C64.6775 84.7829 64.1949 86.0828 64.1949 86.0828C64.0742 86.5358 64.1707 87.4181 65.5222 87.3236C65.699 87.3112 65.8688 87.2488 66.0311 87.1463M61.978 82.7149C62.8849 81.669 63.66 80.5029 64.3076 79.2289M61.978 82.7149C59.7412 85.2944 56.7018 87.1425 52.7917 88.0742M68.1166 82.7149C67.8544 84.0159 67.109 86.4655 66.0311 87.1463M66.0311 87.1463C66.233 87.2362 66.4252 87.3065 66.6082 87.3591M72.7427 80.1743C72.7427 80.1743 68.5992 78.9926 64.3076 79.2289M66.6082 87.3591L66.7892 89.8052M66.7892 89.8052C69.8663 89.5098 69.9869 92.7843 67.2116 94.0002C62.6262 96.0091 55.3258 94.7093 53.5761 92.5822C53.2791 91.844 53.0946 91.0186 52.9799 90.2779M66.7892 89.8052C62.8675 90.9278 54.5303 91.176 52.9799 90.2779M52.7917 88.0742C52.7917 88.0742 52.7917 89.062 52.9799 90.2779M52.7917 88.0742C50.9882 88.5039 48.9994 88.7387 46.8187 88.7602M46.8187 88.7602C45.7028 88.7713 44.5366 88.7265 43.3193 88.6235C40.0069 88.3431 36.4979 87.2018 33.3642 85.3856M46.8187 88.7602C46.7675 89.2397 46.7839 89.6804 46.8187 90.0812M33.6055 89.1552C33.6055 89.1552 31.2525 90.1006 32.0972 91.9322C33.3973 94.7515 44.164 94.8865 46.6377 92.3458C47.1135 91.8571 46.9069 91.0971 46.8187 90.0812M33.6055 89.1552C33.5113 87.6831 33.3642 85.3856 33.3642 85.3856M33.6055 89.1552C38.8743 90.6334 41.3886 90.8096 46.8187 90.0812M33.6055 89.1552L33.3642 85.3856M33.3642 85.3856C32.8547 85.0902 32.3502 84.7771 31.8558 84.4469M28.1151 81.356C28.4681 82.8622 27.936 83.935 27.2101 84.2898M28.1151 81.356C26.0721 79.2252 24.5561 76.7083 23.8548 73.9112M28.1151 81.356C28.5152 81.7732 28.9392 82.1757 29.3821 82.5625M24.9174 80.8242C24.8121 83.8852 26.1991 84.784 27.2101 84.2898M27.2101 84.2898C27.241 85.3902 27.0502 86.33 26.7269 86.9691M23.8548 73.9112C23.485 75.9398 23.0109 80.8242 23.3488 83.1876C23.7711 86.1419 24.5554 87.7372 25.5208 87.8554C25.9915 87.913 26.4192 87.5772 26.7269 86.9691M29.3821 82.5625C30.1578 83.2399 30.9913 83.8694 31.8558 84.4469M29.3821 82.5625L29.3834 82.5828M29.3821 82.5625C29.3826 82.5692 29.383 82.576 29.3834 82.5828M26.7269 86.9691C28.02 87.8711 28.7165 87.5764 29.0805 86.7887M31.8558 84.4469C31.3128 86.0828 31.0798 87.6719 29.0805 86.7887M29.0805 86.7887C29.5794 85.7089 29.4536 83.7028 29.3834 82.5828M55.5669 34.1468C53.0932 32.847 50.6798 32.747 51.5848 30.8381C52.4898 28.9292 55.5669 30.5426 57.1959 31.3107C58.8249 32.0789 62.2339 34.3241 60.8764 35.9194C59.6697 37.3374 58.0406 35.4467 55.5669 34.1468Z" stroke="black" stroke-linecap="round"/>
<ellipse cx="39.2679" cy="45.6943" rx="1.26792" ry="1.24151" fill="black"/>
<ellipse cx="51.85" cy="45.6943" rx="1.26792" ry="1.24151" fill="black"/>
</svg>
